<?xml version="1.0" encoding="UTF-8" standalone="no"?>
<svg width="60px" height="24px" viewBox="0 0 60 24" version="1.1" xmlns="http://www.w3.org/2000/svg" xmlns:xlink="http://www.w3.org/1999/xlink" xmlns:sketch="http://www.bohemiancoding.com/sketch/ns">
    <!-- Generator: Sketch 3.2.2 (9983) - http://www.bohemiancoding.com/sketch -->
    <title>huge-logo</title>
    <desc>Created with Sketch.</desc>
    <defs></defs>
    <g id="Page-1" stroke="none" stroke-width="1" fill="none" fill-rule="evenodd" sketch:type="MSPage">
        <path d="M7.98666667,0 L7.98666667,9.99725782 L3.99190476,9.99725782 L3.99190476,0 L0,0 L0,24 L3.99190476,24 L3.99190476,13.9994039 L7.98666667,13.9994039 L7.98666667,24 L11.9780952,24 L11.9780952,0 L7.98666667,0" id="Fill-1" fill="#FFFFFF" sketch:type="MSShapeGroup"></path>
        <path d="M23.9614286,0 L23.9614286,18.9968405 C23.9614286,19.5500447 23.5204762,19.9959463 22.9652381,19.9959463 L20.9690476,19.9959463 C20.4180952,19.9959463 19.9680952,19.5500447 19.9680952,18.9968405 L19.9680952,0 L15.9761905,0 L15.9761905,19.9959463 C15.9761905,22.2092399 17.767619,24 19.9680952,24 L23.9614286,24 C26.1728571,24 27.9590476,22.2092399 27.9590476,19.9959463 L27.9590476,0 L23.9614286,0" id="Fill-2" fill="#FFFFFF" sketch:type="MSShapeGroup"></path>
        <path d="M59.9133333,0 L47.9319048,0 L47.9319048,24 L59.9133333,24 L59.9133333,19.9959463 L51.9238095,19.9959463 L51.9238095,13.9994039 L55.9219048,13.9994039 L55.9219048,9.99725782 L51.9238095,9.99725782 L51.9238095,3.99737705 L59.9133333,3.99737705 L59.9133333,0 Z" id="Fill-3" fill="#FFFFFF" sketch:type="MSShapeGroup"></path>
        <path d="M43.94,5.99797317 L43.94,3.99737705 C43.94,1.78885246 42.1461905,0 39.9390476,0 L35.9504762,0 C33.7438095,0 31.9528571,1.78885246 31.9528571,3.99737705 L31.9528571,19.9959463 C31.9528571,22.2092399 33.7404762,24 35.9504762,24 L39.9390476,24 C42.1461905,24 43.94,22.2092399 43.94,19.9959463 L43.94,9.99725782 L37.947619,9.99725782 L37.947619,13.9994039 L39.9390476,13.9994039 L39.9390476,19.0001788 C39.9390476,19.5500447 39.4952381,19.9959463 38.9442857,19.9959463 L36.9519048,19.9959463 C36.3961905,19.9959463 35.9504762,19.5500447 35.9504762,18.9968405 L35.9504762,4.99362146 C35.9504762,4.43707899 36.3961905,3.99737705 36.9519048,3.99737705 L38.9442857,3.99737705 C39.4952381,3.99737705 39.9390476,4.43707899 39.9390476,4.99362146 L39.9390476,5.99797317 L43.94,5.99797317" id="Fill-4" fill="#FFFFFF" sketch:type="MSShapeGroup"></path>
    </g>
</svg>